Coordinates
version=1
nRows=17
nColumns=40
inDegrees=yes

Units are S.I. units (second, meters, Newtons, ...)
Angles are in degrees.

endheader
time	pelvis_tilt	pelvis_list	pelvis_rotation	pelvis_tx	pelvis_ty	pelvis_tz	hip_flexion_r	hip_adduction_r	hip_rotation_r	knee_angle_r	knee_angle_r_beta	ankle_angle_r	subtalar_angle_r	mtp_angle_r	hip_flexion_l	hip_adduction_l	hip_rotation_l	knee_angle_l	knee_angle_l_beta	ankle_angle_l	subtalar_angle_l	mtp_angle_l	lumbar_extension	lumbar_bending	lumbar_rotation	arm_flex_r	arm_add_r	arm_rot_r	elbow_flex_r	pro_sup_r	wrist_flex_r	wrist_dev_r	arm_flex_l	arm_add_l	arm_rot_l	elbow_flex_l	pro_sup_l	wrist_flex_l	wrist_dev_l
     23.93000000	     -4.16772298	     -5.68691206	      3.31511053	      0.78482101	      0.92790165	      0.43305044	     12.53162238	      3.66256999	    -15.43111465	     15.72732811	     15.72732811	      9.45045969	     -3.29460284	     -4.34699309	     31.85419303	    -14.80177922	      1.30627244	     62.30419392	     62.30419392	      8.34418344	    -19.44485537	     19.54913655	    -12.19908653	      7.01305676	      2.72335395	     18.99421815	    -19.82089571	      1.04804992	     56.85531226	     44.83133779	      0.00000000	      0.00000000	      1.78810701	    -18.78998003	    -17.67526960	     48.61099748	     46.18685961	      0.00000000	      0.00000000
     23.94235714	     -4.30390222	     -5.60005578	      3.68328318	      0.78321156	      0.92782916	      0.43371226	     12.39828085	      3.60781632	    -15.60129551	     15.69393453	     15.69393453	      9.66855249	     -3.49838881	     -4.44134356	     32.82033336	    -14.33880520	      1.26215040	     60.72141546	     60.72141546	      9.02841173	    -19.43656539	     19.80460724	    -12.27550102	      6.80651459	      2.44851104	     19.77666028	    -19.39571556	      1.05679610	     57.58295818	     44.81863528	      0.00000000	      0.00000000	      1.25741990	    -18.27338125	    -17.57490819	     47.34766950	     46.17530602	      0.00000000	      0.00000000
     23.95471429	     -4.42700522	     -5.63903152	      4.03534633	      0.78166826	      0.92768970	      0.43439802	     12.24256962	      3.69620022	    -15.81078860	     15.62486268	     15.62486268	      9.85742432	     -3.65313255	     -4.48512381	     33.68276623	    -13.99783221	      1.24217924	     58.97685738	     58.97685738	      9.60414143	    -19.41313743	     19.81750027	    -12.35071454	      6.70590431	      2.62924613	     20.34668231	    -19.36902660	      1.03224902	     57.91718647	     44.81248925	      0.00000000	      0.00000000	      0.85784052	    -17.61374572	    -17.43748631	     46.90705447	     46.15556325	      0.00000000	      0.00000000
     23.96707143	     -4.53156964	     -5.51983585	      4.40150043	      0.78019252	      0.92776898	      0.43488341	     11.95561830	      3.62302744	    -16.02704245	     15.37285870	     15.37285870	     10.04074590	     -3.66274339	     -4.54535481	     34.34705431	    -13.44513436	      1.14085650	     56.98239640	     56.98239640	     10.05983164	    -19.40322886	     19.92379692	    -12.41033523	      6.54777684	      2.53103215	     20.74749984	    -19.26443573	      1.35047331	     59.63780862	     44.78116688	      0.00000000	      0.00000000	      1.74167493	    -16.96477307	    -17.71061662	     42.43887649	     46.21559829	      0.00000000	      0.00000000
     23.97942857	     -4.68914264	     -5.44917695	      4.73893654	      0.77871711	      0.92769717	      0.43527792	     11.76462063	      3.59540593	    -16.18090036	     15.17488645	     15.17488645	     10.20656173	     -3.78349088	     -4.54549978	     34.99673581	    -12.89913844	      1.07873595	     54.86241885	     54.86241885	     10.46171922	    -19.37828778	     19.96434065	    -12.45890280	      6.33807890	      2.51322928	     21.32113165	    -19.05623514	      1.28795517	     60.22491132	     44.77040145	      0.00000000	      0.00000000	      1.26206849	    -16.42825427	    -17.60660002	     41.82713424	     46.19966747	      0.00000000	      0.00000000
     23.99178571	     -4.83798867	     -5.47679251	      5.08519414	      0.77723986	      0.92758169	      0.43554085	     11.60642469	      3.65303490	    -16.39971047	     15.03868826	     15.03868826	     10.35982882	     -3.90533854	     -4.56871891	     35.60872387	    -12.39096336	      1.13433821	     52.63920865	     52.63920865	     10.78173518	    -19.31964823	     20.03257434	    -12.50415336	      6.28321444	      2.56732779	     21.90679348	    -18.93800139	      1.25147235	     60.71227750	     44.76009011	      0.00000000	      0.00000000	      0.84387594	    -15.88095020	    -17.49970673	     41.28253461	     46.18154674	      0.00000000	      0.00000000
     24.00414286	     -4.96676068	     -5.28746495	      5.41144224	      0.77589929	      0.92768297	      0.43558256	     11.27990489	      3.50044721	    -16.55443488	     14.67627222	     14.67627222	     10.51534158	     -3.86037662	     -4.56955995	     35.98286891	    -11.60572411	      1.13465986	     50.16984404	     50.16984404	     10.94141688	    -19.27524674	     19.93151679	    -12.59635337	      5.98570757	      2.23648548	     22.53005203	    -18.43865254	      1.31142393	     61.68072612	     44.73268424	      0.00000000	      0.00000000	      0.43497411	    -15.58903376	    -17.42451152	     39.98861894	     46.16751749	      0.00000000	      0.00000000
     24.01650000	     -5.13700098	     -5.22807458	      5.72209671	      0.77454484	      0.92763406	      0.43548005	     11.04497414	      3.45578235	    -16.79225407	     14.38666820	     14.38666820	     10.65539999	     -3.77962517	     -4.61626628	     36.39643806	    -10.87329185	      1.34907856	     47.66513746	     47.66513746	     11.01625273	    -19.17190911	     19.70634928	    -12.63034138	      5.85434840	      2.14764732	     23.07280359	    -18.18051395	      1.39652133	     62.47021996	     44.71049024	      0.00000000	      0.00000000	      0.20352349	    -15.19596065	    -17.35826000	     38.80916292	     46.15697534	      0.00000000	      0.00000000
     24.02885714	     -5.27322919	     -5.20554646	      5.99096976	      0.77330068	      0.92761281	      0.43524584	     10.74693367	      3.41812095	    -17.22579510	     14.07037828	     14.07037828	     10.78901705	     -3.27381576	     -4.91797781	     36.60564924	    -10.19816838	      1.57285682	     44.91088904	     44.91088904	     10.20054747	    -19.02464606	     17.20182270	    -12.67181663	      5.83643718	      2.68576090	     23.07874902	    -18.58752145	      1.72452746	     64.23324743	     44.68322649	      0.00000000	      0.00000000	      1.52386675	    -14.67101225	    -17.60892376	     34.81438738	     46.23077015	      0.00000000	      0.00000000
     24.04121429	     -5.50505894	     -5.13195856	      6.22766644	      0.77205245	      0.92747000	      0.43483788	     10.56544413	      3.34820423	    -17.35539181	     13.77287984	     13.77287984	     10.90729512	     -3.28677431	     -4.92948665	     36.94638477	     -9.34583956	      2.08508311	     42.35005399	     42.35005399	     10.23591114	    -18.73858178	     17.23166038	    -12.60390467	      5.67687641	      2.78443041	     23.45251827	    -18.37292338	      1.71514437	     64.66592644	     44.67528790	      0.00000000	      0.00000000	      1.11916757	    -14.29194909	    -17.58654051	     34.47317893	     46.22388237	      0.00000000	      0.00000000
     24.05357143	     -5.71463703	     -5.14786743	      6.42271818	      0.77092639	      0.92725932	      0.43443495	     10.38581968	      3.36894416	    -17.52117529	     13.52986748	     13.52986748	     11.04404710	     -3.22392081	     -4.98770076	     37.23758690	     -8.64249301	      2.66910880	     39.86607509	     39.86607509	     10.26171495	    -18.07170756	     17.18914271	    -12.53855282	      5.64101039	      2.95995622	     23.93865475	    -18.21016227	      1.74298700	     65.08162763	     44.66548223	      0.00000000	      0.00000000	      0.75374893	    -13.94670467	    -17.55946290	     34.14856237	     46.21583040	      0.00000000	      0.00000000
     24.06592857	     -5.84640797	     -4.97437751	      6.54876221	      0.77011801	      0.92732152	      0.43390047	      9.93626769	      3.21899280	    -17.68977888	     13.01541229	     13.01541229	     11.17185528	     -2.77525593	     -5.08773501	     37.19674632	     -7.81812303	      3.16358703	     37.25316964	     37.25316964	     10.03450135	    -17.38007648	     16.59686095	    -12.61028008	      5.37088050	      2.92682813	     24.36117390	    -17.80423078	      1.94934198	     65.76271565	     44.64389592	      0.00000000	      0.00000000	      0.34330227	    -13.80651028	    -17.58914914	     33.52337788	     46.21807490	      0.00000000	      0.00000000
     24.07828571	     -5.92895466	     -5.03187326	      6.64627959	      0.76955731	      0.92710833	      0.43336364	      9.48571855	      3.26991522	    -18.21473213	     12.60327188	     12.60327188	     11.27389079	     -1.89985227	     -5.65496441	     36.99367807	     -7.37021284	      3.56889582	     34.51348029	     34.51348029	      8.39911829	    -16.63486199	     11.93399911	    -12.64081765	      5.39041396	      3.18599182	     24.68358206	    -18.00998216	      2.93197679	     66.71232391	     44.63645484	      0.00000000	      0.00000000	      0.43910816	    -13.47293528	    -18.14972309	     32.17213420	     46.33062594	      0.00000000	      0.00000000
     24.09064286	     -6.08688933	     -5.04091898	      6.66598268	      0.76911420	      0.92684080	      0.43287612	      9.13222491	      3.33153963	    -18.20313021	     12.21568226	     12.21568226	     11.42341625	     -1.74191322	     -5.68422624	     36.99977910	     -6.93470160	      3.94472892	     32.37860536	     32.37860536	      8.55712740	    -15.25441552	     11.92841237	    -12.57791777	      5.30066863	      3.41736841	     25.02710137	    -17.73495037	      3.02259251	     67.00256262	     44.63166840	      0.00000000	      0.00000000	      0.01164684	    -13.31300944	    -18.20687136	     32.00834440	     46.33501878	      0.00000000	      0.00000000
     24.10300000	     -6.25586542	     -5.23582140	      6.67076201	      0.76882499	      0.92632253	      0.43238021	      8.89448036	      3.55671804	    -18.26281173	     12.01320172	     12.01320172	     11.61019586	     -1.60065794	     -5.77511492	     37.06111665	     -6.71468084	      4.39344852	     30.53164798	     30.53164798	      8.70555607	    -14.02413917	     11.98536677	    -12.45341936	      5.43207641	      3.74557710	     25.38088939	    -17.59096939	      3.11235672	     67.21815577	     44.62560288	      0.00000000	      0.00000000	     -0.36821462	    -13.10843309	    -18.23246008	     31.88014705	     46.33346742	      0.00000000	      0.00000000
     24.11535714	     -6.25447512	     -5.19262211	      6.58632522	      0.76913353	      0.92620060	      0.43184017	      8.19018927	      3.61346128	    -18.26491311	     11.39770585	     11.39770585	     11.76885718	     -1.05613676	     -5.83470978	     36.71035794	     -6.49879496	      4.21657136	     28.75865968	     28.75865968	      8.88122341	    -12.45843593	     11.83944676	    -12.49970740	      5.25596781	      3.90996896	     25.65802538	    -17.24857601	      3.46971069	     67.54155342	     44.61039249	      0.00000000	      0.00000000	     -0.86736929	    -13.08488573	    -18.36015654	     31.74070286	     46.34752865	      0.00000000	      0.00000000
     24.12771429	     -6.20808144	     -5.36850908	      6.48850416	      0.76971241	      0.92582031	      0.43126018	      7.48491709	      3.88729402	    -18.40941835	     10.85324063	     10.85324063	     11.95068668	     -0.42132983	     -5.96263331	     36.41636950	     -6.54934941	      3.98564165	     27.42654646	     27.42654646	      9.01902828	    -11.11803204	     11.51741241	    -12.52096609	      5.34480842	      4.07523632	     25.99719321	    -17.03282009	      4.08585229	     67.78531463	     44.59442223	      0.00000000	      0.00000000	     -1.43553961	    -13.01071463	    -18.61635485	     31.73831582	     46.38083176	      0.00000000	      0.00000000
